<svg width="532" height="76" viewBox="0 0 532 76" fill="none" xmlns="http://www.w3.org/2000/svg">
<g clip-path="url(#clip0_911_7)">
<path d="M124.544 43.7242C122 46.2442 118.904 47.5042 115.256 47.5042C111.608 47.5042 108.512 46.2442 105.968 43.7242C103.448 41.1802 102.188 38.0722 102.188 34.4002C102.188 30.7282 103.448 27.6322 105.968 25.1122C108.512 22.5682 111.608 21.2962 115.256 21.2962C118.904 21.2962 122 22.5682 124.544 25.1122C127.088 27.6322 128.36 30.7282 128.36 34.4002C128.36 38.0722 127.088 41.1802 124.544 43.7242ZM109.46 40.3402C111.02 41.8762 112.952 42.6442 115.256 42.6442C117.56 42.6442 119.492 41.8762 121.052 40.3402C122.612 38.7802 123.392 36.8002 123.392 34.4002C123.392 32.0002 122.612 30.0202 121.052 28.4602C119.492 26.9002 117.56 26.1202 115.256 26.1202C112.952 26.1202 111.02 26.9002 109.46 28.4602C107.9 30.0202 107.12 32.0002 107.12 34.4002C107.12 36.8002 107.9 38.7802 109.46 40.3402ZM143.804 47.5042C140.012 47.5042 136.88 46.2442 134.408 43.7242C131.936 41.2042 130.7 38.0962 130.7 34.4002C130.7 30.6802 131.936 27.5722 134.408 25.0762C136.88 22.5562 140.012 21.2962 143.804 21.2962C146.084 21.2962 148.184 21.8362 150.104 22.9162C152.048 23.9722 153.56 25.4122 154.64 27.2362L150.356 29.7202C149.732 28.5922 148.844 27.7162 147.692 27.0922C146.54 26.4442 145.244 26.1202 143.804 26.1202C141.356 26.1202 139.376 26.8882 137.864 28.4242C136.376 29.9602 135.632 31.9522 135.632 34.4002C135.632 36.8242 136.376 38.8042 137.864 40.3402C139.376 41.8762 141.356 42.6442 143.804 42.6442C145.244 42.6442 146.54 42.3322 147.692 41.7082C148.868 41.0602 149.756 40.1842 150.356 39.0802L154.64 41.5642C153.56 43.3882 152.06 44.8402 150.14 45.9202C148.22 46.9762 146.108 47.5042 143.804 47.5042ZM175.577 47.5042C173.081 47.5042 170.981 46.9522 169.277 45.8482C167.573 44.7202 166.373 43.1962 165.677 41.2762L169.925 38.7922C170.909 41.3602 172.841 42.6442 175.721 42.6442C177.113 42.6442 178.133 42.3922 178.781 41.8882C179.429 41.3842 179.753 40.7482 179.753 39.9802C179.753 39.0922 179.357 38.4082 178.565 37.9282C177.773 37.4242 176.357 36.8842 174.317 36.3082C173.189 35.9722 172.229 35.6362 171.437 35.3002C170.669 34.9642 169.889 34.5202 169.097 33.9682C168.329 33.3922 167.741 32.6722 167.333 31.8082C166.925 30.9442 166.721 29.9362 166.721 28.7842C166.721 26.5042 167.525 24.6922 169.133 23.3482C170.765 21.9802 172.721 21.2962 175.001 21.2962C177.041 21.2962 178.829 21.8002 180.365 22.8082C181.925 23.7922 183.137 25.1722 184.001 26.9482L179.825 29.3602C178.817 27.2002 177.209 26.1202 175.001 26.1202C173.969 26.1202 173.153 26.3602 172.553 26.8402C171.977 27.2962 171.689 27.8962 171.689 28.6402C171.689 29.4322 172.013 30.0802 172.661 30.5842C173.333 31.0642 174.605 31.5922 176.477 32.1682C177.245 32.4082 177.821 32.6002 178.205 32.7442C178.613 32.8642 179.153 33.0682 179.825 33.3562C180.521 33.6202 181.049 33.8722 181.409 34.1122C181.793 34.3522 182.225 34.6762 182.705 35.0842C183.185 35.4922 183.545 35.9122 183.785 36.3442C184.049 36.7762 184.265 37.3042 184.433 37.9282C184.625 38.5282 184.721 39.1882 184.721 39.9082C184.721 42.2362 183.869 44.0842 182.165 45.4522C180.485 46.8202 178.289 47.5042 175.577 47.5042ZM198.221 28.4962C200.645 28.4962 202.709 29.4202 204.413 31.2682C206.141 33.0922 207.005 35.3362 207.005 38.0002C207.005 40.6642 206.141 42.9202 204.413 44.7682C202.709 46.5922 200.645 47.5042 198.221 47.5042C195.701 47.5042 193.757 46.6282 192.389 44.8762V54.2002H187.745V29.0002H192.389V31.1242C193.757 29.3722 195.701 28.4962 198.221 28.4962ZM193.793 41.6722C194.729 42.6082 195.917 43.0762 197.357 43.0762C198.797 43.0762 199.985 42.6082 200.921 41.6722C201.881 40.7122 202.361 39.4882 202.361 38.0002C202.361 36.5122 201.881 35.3002 200.921 34.3642C199.985 33.4042 198.797 32.9242 197.357 32.9242C195.917 32.9242 194.729 33.4042 193.793 34.3642C192.857 35.3002 192.389 36.5122 192.389 38.0002C192.389 39.4882 192.857 40.7122 193.793 41.6722ZM214.204 39.9082C214.828 42.1642 216.52 43.2922 219.28 43.2922C221.056 43.2922 222.4 42.6922 223.312 41.4922L227.056 43.6522C225.28 46.2202 222.664 47.5042 219.208 47.5042C216.232 47.5042 213.844 46.6042 212.044 44.8042C210.244 43.0042 209.344 40.7362 209.344 38.0002C209.344 35.2882 210.232 33.0322 212.008 31.2322C213.784 29.4082 216.064 28.4962 218.848 28.4962C221.488 28.4962 223.66 29.4082 225.364 31.2322C227.092 33.0562 227.956 35.3122 227.956 38.0002C227.956 38.6002 227.896 39.2362 227.776 39.9082H214.204ZM214.132 36.3082H223.312C223.048 35.0842 222.496 34.1722 221.656 33.5722C220.84 32.9722 219.904 32.6722 218.848 32.6722C217.6 32.6722 216.568 32.9962 215.752 33.6442C214.936 34.2682 214.396 35.1562 214.132 36.3082ZM239.626 47.5042C236.914 47.5042 234.646 46.5922 232.822 44.7682C231.022 42.9442 230.122 40.6882 230.122 38.0002C230.122 35.3122 231.022 33.0562 232.822 31.2322C234.646 29.4082 236.914 28.4962 239.626 28.4962C241.378 28.4962 242.974 28.9162 244.414 29.7562C245.854 30.5962 246.946 31.7242 247.69 33.1402L243.694 35.4802C243.334 34.7362 242.782 34.1482 242.038 33.7162C241.318 33.2842 240.502 33.0682 239.59 33.0682C238.198 33.0682 237.046 33.5362 236.134 34.4722C235.222 35.3842 234.766 36.5602 234.766 38.0002C234.766 39.4162 235.222 40.5922 236.134 41.5282C237.046 42.4402 238.198 42.8962 239.59 42.8962C240.526 42.8962 241.354 42.6922 242.074 42.2842C242.818 41.8522 243.37 41.2642 243.73 40.5202L247.762 42.8242C246.97 44.2402 245.854 45.3802 244.414 46.2442C242.974 47.0842 241.378 47.5042 239.626 47.5042ZM252.522 26.8402C251.754 26.8402 251.082 26.5642 250.506 26.0122C249.954 25.4362 249.678 24.7642 249.678 23.9962C249.678 23.2282 249.954 22.5562 250.506 21.9802C251.082 21.4042 251.754 21.1162 252.522 21.1162C253.314 21.1162 253.986 21.4042 254.538 21.9802C255.114 22.5562 255.402 23.2282 255.402 23.9962C255.402 24.7642 255.114 25.4362 254.538 26.0122C253.986 26.5642 253.314 26.8402 252.522 26.8402ZM250.218 47.0002V29.0002H254.862V47.0002H250.218ZM272.792 29.0002H277.436V47.0002H272.792V44.8762C271.4 46.6282 269.444 47.5042 266.924 47.5042C264.524 47.5042 262.46 46.5922 260.732 44.7682C259.028 42.9202 258.176 40.6642 258.176 38.0002C258.176 35.3362 259.028 33.0922 260.732 31.2682C262.46 29.4202 264.524 28.4962 266.924 28.4962C269.444 28.4962 271.4 29.3722 272.792 31.1242V29.0002ZM264.224 41.6722C265.16 42.6082 266.348 43.0762 267.788 43.0762C269.228 43.0762 270.416 42.6082 271.352 41.6722C272.312 40.7122 272.792 39.4882 272.792 38.0002C272.792 36.5122 272.312 35.3002 271.352 34.3642C270.416 33.4042 269.228 32.9242 267.788 32.9242C266.348 32.9242 265.16 33.4042 264.224 34.3642C263.288 35.3002 262.82 36.5122 262.82 38.0002C262.82 39.4882 263.288 40.7122 264.224 41.6722ZM281.647 47.0002V20.7202H286.291V47.0002H281.647ZM300.838 33.4642H296.77V40.9522C296.77 41.5762 296.926 42.0322 297.238 42.3202C297.55 42.6082 298.006 42.7762 298.606 42.8242C299.206 42.8482 299.95 42.8362 300.838 42.7882V47.0002C297.646 47.3602 295.39 47.0602 294.07 46.1002C292.774 45.1402 292.126 43.4242 292.126 40.9522V33.4642H288.994V29.0002H292.126V25.3642L296.77 23.9602V29.0002H300.838V33.4642ZM306.416 26.8402C305.648 26.8402 304.976 26.5642 304.4 26.0122C303.848 25.4362 303.572 24.7642 303.572 23.9962C303.572 23.2282 303.848 22.5562 304.4 21.9802C304.976 21.4042 305.648 21.1162 306.416 21.1162C307.208 21.1162 307.88 21.4042 308.432 21.9802C309.008 22.5562 309.296 23.2282 309.296 23.9962C309.296 24.7642 309.008 25.4362 308.432 26.0122C307.88 26.5642 307.208 26.8402 306.416 26.8402ZM304.112 47.0002V29.0002H308.756V47.0002H304.112ZM316.931 39.9082C317.555 42.1642 319.247 43.2922 322.007 43.2922C323.783 43.2922 325.127 42.6922 326.039 41.4922L329.783 43.6522C328.007 46.2202 325.391 47.5042 321.935 47.5042C318.959 47.5042 316.571 46.6042 314.771 44.8042C312.971 43.0042 312.071 40.7362 312.071 38.0002C312.071 35.2882 312.959 33.0322 314.735 31.2322C316.511 29.4082 318.791 28.4962 321.575 28.4962C324.215 28.4962 326.387 29.4082 328.091 31.2322C329.819 33.0562 330.683 35.3122 330.683 38.0002C330.683 38.6002 330.623 39.2362 330.503 39.9082H316.931ZM316.859 36.3082H326.039C325.775 35.0842 325.223 34.1722 324.383 33.5722C323.567 32.9722 322.631 32.6722 321.575 32.6722C320.327 32.6722 319.295 32.9962 318.479 33.6442C317.663 34.2682 317.123 35.1562 316.859 36.3082ZM337.506 34.1122C337.506 34.5922 337.818 34.9882 338.442 35.3002C339.09 35.5882 339.87 35.8522 340.782 36.0922C341.694 36.3082 342.606 36.5962 343.518 36.9562C344.43 37.2922 345.198 37.8682 345.822 38.6842C346.47 39.5002 346.794 40.5202 346.794 41.7442C346.794 43.5922 346.098 45.0202 344.706 46.0282C343.338 47.0122 341.622 47.5042 339.558 47.5042C335.862 47.5042 333.342 46.0762 331.998 43.2202L336.03 40.9522C336.558 42.5122 337.734 43.2922 339.558 43.2922C341.214 43.2922 342.042 42.7762 342.042 41.7442C342.042 41.2642 341.718 40.8802 341.07 40.5922C340.446 40.2802 339.678 40.0042 338.766 39.7642C337.854 39.5242 336.942 39.2242 336.03 38.8642C335.118 38.5042 334.338 37.9402 333.69 37.1722C333.066 36.3802 332.754 35.3962 332.754 34.2202C332.754 32.4442 333.402 31.0522 334.698 30.0442C336.018 29.0122 337.65 28.4962 339.594 28.4962C341.058 28.4962 342.39 28.8322 343.59 29.5042C344.79 30.1522 345.738 31.0882 346.434 32.3122L342.474 34.4722C341.898 33.2482 340.938 32.6362 339.594 32.6362C338.994 32.6362 338.49 32.7682 338.082 33.0322C337.698 33.2962 337.506 33.6562 337.506 34.1122ZM371.124 47.5042C367.332 47.5042 364.2 46.2442 361.728 43.7242C359.256 41.2042 358.02 38.0962 358.02 34.4002C358.02 30.6802 359.256 27.5722 361.728 25.0762C364.2 22.5562 367.332 21.2962 371.124 21.2962C373.404 21.2962 375.504 21.8362 377.424 22.9162C379.368 23.9722 380.88 25.4122 381.96 27.2362L377.676 29.7202C377.052 28.5922 376.164 27.7162 375.012 27.0922C373.86 26.4442 372.564 26.1202 371.124 26.1202C368.676 26.1202 366.696 26.8882 365.184 28.4242C363.696 29.9602 362.952 31.9522 362.952 34.4002C362.952 36.8242 363.696 38.8042 365.184 40.3402C366.696 41.8762 368.676 42.6442 371.124 42.6442C372.564 42.6442 373.86 42.3322 375.012 41.7082C376.188 41.0602 377.076 40.1842 377.676 39.0802L381.96 41.5642C380.88 43.3882 379.38 44.8402 377.46 45.9202C375.54 46.9762 373.428 47.5042 371.124 47.5042ZM395.085 28.4962C397.053 28.4962 398.673 29.1562 399.945 30.4762C401.241 31.7962 401.889 33.6202 401.889 35.9482V47.0002H397.245V36.5242C397.245 35.3242 396.921 34.4122 396.273 33.7882C395.625 33.1402 394.761 32.8162 393.681 32.8162C392.481 32.8162 391.521 33.1882 390.801 33.9322C390.081 34.6762 389.721 35.7922 389.721 37.2802V47.0002H385.077V21.8002H389.721V31.0162C390.849 29.3362 392.637 28.4962 395.085 28.4962ZM409.779 39.9082C410.403 42.1642 412.094 43.2922 414.854 43.2922C416.63 43.2922 417.974 42.6922 418.886 41.4922L422.63 43.6522C420.854 46.2202 418.238 47.5042 414.782 47.5042C411.806 47.5042 409.418 46.6042 407.618 44.8042C405.818 43.0042 404.918 40.7362 404.918 38.0002C404.918 35.2882 405.806 33.0322 407.582 31.2322C409.358 29.4082 411.638 28.4962 414.422 28.4962C417.062 28.4962 419.234 29.4082 420.938 31.2322C422.666 33.0562 423.53 35.3122 423.53 38.0002C423.53 38.6002 423.47 39.2362 423.35 39.9082H409.779ZM409.706 36.3082H418.886C418.622 35.0842 418.07 34.1722 417.23 33.5722C416.414 32.9722 415.478 32.6722 414.422 32.6722C413.174 32.6722 412.142 32.9962 411.326 33.6442C410.51 34.2682 409.97 35.1562 409.706 36.3082ZM446.68 28.4962C448.744 28.4962 450.388 29.1682 451.612 30.5122C452.86 31.8562 453.484 33.6562 453.484 35.9122V47.0002H448.84V36.2362C448.84 35.1562 448.576 34.3162 448.048 33.7162C447.52 33.1162 446.776 32.8162 445.816 32.8162C444.76 32.8162 443.932 33.1642 443.332 33.8602C442.756 34.5562 442.468 35.5642 442.468 36.8842V47.0002H437.824V36.2362C437.824 35.1562 437.56 34.3162 437.032 33.7162C436.504 33.1162 435.76 32.8162 434.8 32.8162C433.768 32.8162 432.94 33.1642 432.316 33.8602C431.716 34.5562 431.416 35.5642 431.416 36.8842V47.0002H426.772V29.0002H431.416V30.9082C432.496 29.3002 434.164 28.4962 436.42 28.4962C438.628 28.4962 440.26 29.3602 441.316 31.0882C442.516 29.3602 444.304 28.4962 446.68 28.4962ZM459.733 26.8402C458.965 26.8402 458.293 26.5642 457.717 26.0122C457.165 25.4362 456.889 24.7642 456.889 23.9962C456.889 23.2282 457.165 22.5562 457.717 21.9802C458.293 21.4042 458.965 21.1162 459.733 21.1162C460.525 21.1162 461.197 21.4042 461.749 21.9802C462.325 22.5562 462.613 23.2282 462.613 23.9962C462.613 24.7642 462.325 25.4362 461.749 26.0122C461.197 26.5642 460.525 26.8402 459.733 26.8402ZM457.429 47.0002V29.0002H462.073V47.0002H457.429ZM474.891 47.5042C472.179 47.5042 469.911 46.5922 468.087 44.7682C466.287 42.9442 465.387 40.6882 465.387 38.0002C465.387 35.3122 466.287 33.0562 468.087 31.2322C469.911 29.4082 472.179 28.4962 474.891 28.4962C476.643 28.4962 478.239 28.9162 479.679 29.7562C481.119 30.5962 482.211 31.7242 482.955 33.1402L478.959 35.4802C478.599 34.7362 478.047 34.1482 477.303 33.7162C476.583 33.2842 475.767 33.0682 474.855 33.0682C473.463 33.0682 472.311 33.5362 471.399 34.4722C470.487 35.3842 470.031 36.5602 470.031 38.0002C470.031 39.4162 470.487 40.5922 471.399 41.5282C472.311 42.4402 473.463 42.8962 474.855 42.8962C475.791 42.8962 476.619 42.6922 477.339 42.2842C478.083 41.8522 478.635 41.2642 478.995 40.5202L483.027 42.8242C482.235 44.2402 481.119 45.3802 479.679 46.2442C478.239 47.0842 476.643 47.5042 474.891 47.5042ZM498.882 29.0002H503.526V47.0002H498.882V44.8762C497.49 46.6282 495.534 47.5042 493.014 47.5042C490.614 47.5042 488.55 46.5922 486.822 44.7682C485.118 42.9202 484.266 40.6642 484.266 38.0002C484.266 35.3362 485.118 33.0922 486.822 31.2682C488.55 29.4202 490.614 28.4962 493.014 28.4962C495.534 28.4962 497.49 29.3722 498.882 31.1242V29.0002ZM490.314 41.6722C491.25 42.6082 492.438 43.0762 493.878 43.0762C495.318 43.0762 496.506 42.6082 497.442 41.6722C498.402 40.7122 498.882 39.4882 498.882 38.0002C498.882 36.5122 498.402 35.3002 497.442 34.3642C496.506 33.4042 495.318 32.9242 493.878 32.9242C492.438 32.9242 491.25 33.4042 490.314 34.3642C489.378 35.3002 488.91 36.5122 488.91 38.0002C488.91 39.4882 489.378 40.7122 490.314 41.6722ZM507.737 47.0002V20.7202H512.381V47.0002H507.737ZM520.776 34.1122C520.776 34.5922 521.087 34.9882 521.711 35.3002C522.359 35.5882 523.14 35.8522 524.052 36.0922C524.964 36.3082 525.875 36.5962 526.787 36.9562C527.699 37.2922 528.467 37.8682 529.091 38.6842C529.739 39.5002 530.063 40.5202 530.063 41.7442C530.063 43.5922 529.367 45.0202 527.975 46.0282C526.607 47.0122 524.892 47.5042 522.828 47.5042C519.132 47.5042 516.612 46.0762 515.268 43.2202L519.299 40.9522C519.827 42.5122 521.004 43.2922 522.828 43.2922C524.484 43.2922 525.311 42.7762 525.311 41.7442C525.311 41.2642 524.987 40.8802 524.339 40.5922C523.715 40.2802 522.947 40.0042 522.035 39.7642C521.123 39.5242 520.211 39.2242 519.299 38.8642C518.387 38.5042 517.607 37.9402 516.959 37.1722C516.335 36.3802 516.023 35.3962 516.023 34.2202C516.023 32.4442 516.671 31.0522 517.967 30.0442C519.287 29.0122 520.919 28.4962 522.863 28.4962C524.327 28.4962 525.659 28.8322 526.859 29.5042C528.059 30.1522 529.007 31.0882 529.703 32.3122L525.743 34.4722C525.167 33.2482 524.207 32.6362 522.863 32.6362C522.263 32.6362 521.76 32.7682 521.352 33.0322C520.968 33.2962 520.776 33.6562 520.776 34.1122Z" fill="#F9F9F9"/>
<g clip-path="url(#clip1_911_7)">
<path d="M21.5154 35.6062H0.505859C1.58189 15.5843 18.1571 -0.320312 38.4494 -0.320312C40.228 -0.320312 41.9796 -0.197478 43.6944 0.0383635C41.1271 1.69908 38.6926 3.59564 36.4177 5.71331C27.6817 13.8572 22.3532 24.6077 21.5154 35.6062Z" fill="white"/>
<path d="M34.8501 69.0198C37.7048 71.4741 40.9034 73.545 44.4042 75.2156C42.4634 75.5202 40.4759 75.6799 38.4492 75.6799C18.6679 75.6799 2.41696 60.5664 0.616211 41.2568H21.4686C22.0803 52.4274 26.6767 61.9839 34.8501 69.0198Z" fill="white"/>
<path d="M76.2823 41.2568C74.9655 55.368 65.9323 67.2387 53.4449 72.6066C38.0391 68.1379 28.1214 56.6996 27.124 41.2568H76.2823Z" fill="white"/>
<path d="M76.393 35.6064H27.1709C28.382 21.1734 38.0958 8.53126 51.5953 2.01367C65.4878 7.13586 75.5627 20.144 76.393 35.6064Z" fill="white"/>
</g>
</g>
<defs>
<clipPath id="clip0_911_7">
<rect width="532" height="76" fill="white"/>
</clipPath>
<clipPath id="clip1_911_7">
<rect width="75.887" height="76" fill="white" transform="translate(0.506836 -0.319824)"/>
</clipPath>
</defs>
</svg>
